<!DOCTYPE svg PUBLIC "-//W3C//DTD SVG 20010904//EN" "http://www.w3.org/TR/2001/REC-SVG-20010904/DTD/svg10.dtd">
<svg version="1.0" xmlns="http://www.w3.org/2000/svg" width="211px" height="166px" viewBox="0 0 2110 1660" preserveAspectRatio="xMidYMid meet">
<g id="layer101" fill="#8cb8b5" stroke="none">
 <path d="M632 1443 c2 -10 10 -18 18 -18 8 0 16 8 18 18 2 12 -3 17 -18 17 -15 0 -20 -5 -18 -17z"/>
 <path d="M720 1451 c0 -13 26 -32 33 -24 14 13 6 33 -13 33 -11 0 -20 -4 -20 -9z"/>
 <path d="M814 1445 c-4 -9 -4 -18 -1 -21 10 -10 48 7 44 19 -6 19 -36 20 -43 2z"/>
 <path d="M1470 1432 c-34 -35 -44 -89 -38 -203 5 -92 25 -127 79 -145 65 -22 134 20 146 89 5 32 3 37 -15 37 -13 0 -22 -9 -27 -27 -15 -62 -74 -84 -115 -43 -18 18 -20 33 -20 130 0 97 2 112 20 130 44 44 110 13 113 -52 2 -32 1 -33 -40 -36 -35 -3 -43 -7 -43 -23 0 -16 7 -19 54 -19 68 0 80 13 74 82 -4 42 -11 57 -37 80 -45 40 -111 40 -151 0z"/>
 <path d="M1760 1432 c-32 -32 -46 -84 -36 -136 20 -104 139 -134 204 -51 17 21 22 41 22 87 0 55 -3 63 -34 94 -29 29 -41 34 -81 34 -38 0 -52 -5 -75 -28z m129 -38 c45 -57 13 -154 -50 -154 -45 0 -69 31 -69 90 0 37 5 55 20 70 29 29 74 26 99 -6z"/>
 <path d="M543 1434 c-7 -18 17 -38 31 -24 11 11 1 40 -14 40 -6 0 -13 -7 -17 -16z"/>
 <path d="M900 1420 c0 -11 7 -20 15 -20 8 0 15 9 15 20 0 11 -7 20 -15 20 -8 0 -15 -9 -15 -20z"/>
 <path d="M453 1404 c-6 -16 15 -37 29 -28 4 3 8 14 8 25 0 23 -28 26 -37 3z"/>
 <path d="M992 1389 c2 -6 8 -10 13 -10 5 0 11 4 13 10 2 6 -4 11 -13 11 -9 0 -15 -5 -13 -11z"/>
 <path d="M1072 1368 c-7 -7 -12 -18 -12 -25 0 -18 29 -16 37 3 8 21 -10 37 -25 22z"/>
 <path d="M380 1360 c0 -5 9 -10 20 -10 11 0 20 5 20 10 0 6 -9 10 -20 10 -11 0 -20 -4 -20 -10z"/>
 <path d="M304 1319 c-8 -14 11 -33 25 -25 6 4 11 14 11 22 0 16 -26 19 -36 3z"/>
 <path d="M1144 1306 c-6 -17 2 -36 17 -36 12 0 12 37 -1 45 -6 3 -13 -1 -16 -9z"/>
 <path d="M240 1250 c0 -11 7 -20 15 -20 8 0 15 9 15 20 0 11 -7 20 -15 20 -8 0 -15 -9 -15 -20z"/>
 <path d="M1215 1249 c-10 -15 1 -23 20 -15 9 3 13 10 10 16 -8 13 -22 13 -30 -1z"/>
 <path d="M176 1193 c-9 -22 10 -41 25 -26 13 13 5 43 -10 43 -5 0 -12 -8 -15 -17z"/>
 <path d="M1968 1188 c-2 -17 -11 -24 -31 -26 -35 -4 -30 -26 7 -30 21 -3 26 -8 24 -24 -2 -12 3 -23 10 -25 7 -3 12 5 12 21 0 21 5 26 25 26 16 0 25 6 25 15 0 9 -9 15 -25 15 -20 0 -25 5 -25 25 0 31 -17 33 -22 3z"/>
 <path d="M1264 1189 c-6 -11 13 -39 27 -39 5 0 9 9 9 19 0 21 -26 36 -36 20z"/>
 <path d="M130 1112 c0 -14 11 -21 26 -15 21 8 17 23 -6 23 -11 0 -20 -4 -20 -8z"/>
 <path d="M436 1107 c-17 -12 -17 -15 -1 -52 24 -60 52 -84 143 -127 45 -21 85 -44 88 -52 6 -15 -8 -47 -66 -156 -66 -125 -54 -198 43 -261 50 -32 69 -39 111 -39 96 1 174 57 197 143 15 55 -5 127 -62 225 -49 86 -49 87 55 139 106 53 146 97 146 163 l0 30 -318 0 c-246 0 -322 -3 -336 -13z m614 -32 c0 -4 -7 -19 -14 -34 -19 -35 -46 -53 -116 -76 -63 -21 -110 -63 -110 -98 0 -14 14 -51 30 -82 23 -44 30 -70 30 -115 l0 -58 -86 -7 c-102 -8 -112 -3 -121 72 -4 42 -1 61 21 108 14 32 26 68 26 80 0 35 -51 79 -120 105 -33 12 -72 31 -85 42 -27 21 -33 53 -12 61 17 7 557 8 557 2z m-423 -457 c4 -7 13 -26 18 -43 10 -29 12 -30 60 -27 105 7 168 21 193 44 l25 23 -7 -29 c-17 -70 -67 -110 -152 -121 -44 -6 -53 -4 -89 23 -71 54 -75 60 -75 102 0 40 11 51 27 28z"/>
 <path d="M1313 1104 c-8 -21 13 -42 28 -27 13 13 5 43 -11 43 -6 0 -13 -7 -17 -16z"/>
 <path d="M86 1041 c-8 -12 21 -34 33 -27 6 4 8 13 4 21 -6 17 -29 20 -37 6z"/>
 <path d="M1352 1014 c4 -21 22 -23 26 -1 2 10 -3 17 -13 17 -10 0 -15 -6 -13 -16z"/>
 <path d="M57 953 c-8 -7 11 -33 24 -33 5 0 9 9 9 20 0 19 -20 27 -33 13z"/>
 <path d="M1374 946 c-9 -24 12 -44 28 -28 10 10 8 16 -5 29 -15 15 -17 15 -23 -1z"/>
 <path d="M40 866 c0 -18 16 -29 30 -21 13 8 1 35 -16 35 -8 0 -14 -6 -14 -14z"/>
 <path d="M1397 863 c-4 -3 -7 -15 -7 -25 0 -22 26 -24 34 -2 10 25 -10 45 -27 27z"/>
 <path d="M32 763 c2 -10 10 -18 18 -18 8 0 16 8 18 18 2 12 -3 17 -18 17 -15 0 -20 -5 -18 -17z"/>
 <path d="M1402 764 c1 -9 9 -19 16 -22 9 -3 13 2 10 14 -1 9 -9 19 -16 22 -9 3 -13 -2 -10 -14z"/>
 <path d="M42 683 c4 -21 33 -25 33 -3 0 8 -8 16 -18 18 -14 3 -18 -1 -15 -15z"/>
 <path d="M1390 671 c0 -11 4 -22 9 -25 12 -8 34 21 26 34 -11 17 -35 11 -35 -9z"/>
 <path d="M62 608 c-13 -13 -4 -38 14 -38 15 0 19 35 6 44 -5 3 -14 0 -20 -6z"/>
 <path d="M1375 590 c-10 -16 16 -43 28 -31 11 11 2 41 -12 41 -5 0 -13 -5 -16 -10z"/>
 <path d="M87 524 c-16 -16 -6 -35 16 -32 12 2 22 10 22 18 0 16 -26 25 -38 14z"/>
 <path d="M1350 505 c-6 -8 -9 -19 -6 -24 9 -14 36 -2 36 14 0 21 -16 26 -30 10z"/>
 <path d="M130 420 c0 -13 5 -20 13 -17 6 2 12 10 12 17 0 7 -6 15 -12 18 -8 2 -13 -5 -13 -18z"/>
 <path d="M1304 426 c-6 -17 2 -36 17 -36 12 0 12 37 -1 45 -6 3 -13 -1 -16 -9z"/>
 <path d="M177 363 c-14 -13 -6 -33 13 -33 13 0 20 7 20 20 0 19 -20 27 -33 13z"/>
 <path d="M1255 350 c-9 -29 8 -46 25 -25 11 13 11 19 -2 32 -14 14 -17 13 -23 -7z"/>
 <path d="M230 296 c0 -18 17 -29 30 -21 8 5 7 11 -1 21 -15 18 -29 18 -29 0z"/>
 <path d="M1203 293 c-18 -6 -16 -33 1 -33 19 0 31 19 20 30 -5 4 -15 5 -21 3z"/>
 <path d="M297 244 c-10 -10 12 -44 28 -44 16 0 18 9 9 34 -6 16 -25 21 -37 10z"/>
 <path d="M1123 224 c-8 -21 13 -42 28 -27 13 13 5 43 -11 43 -6 0 -13 -7 -17 -16z"/>
 <path d="M380 170 c0 -13 5 -20 13 -17 6 2 12 10 12 17 0 7 -6 15 -12 18 -8 2 -13 -5 -13 -18z"/>
 <path d="M1045 181 c-8 -15 3 -31 21 -31 9 0 14 7 12 17 -4 20 -24 28 -33 14z"/>
 <path d="M456 142 c-9 -15 12 -35 29 -28 14 5 15 9 5 21 -14 17 -26 19 -34 7z"/>
 <path d="M967 143 c-16 -15 -6 -34 15 -31 29 4 38 38 10 38 -10 0 -22 -3 -25 -7z"/>
 <path d="M537 124 c-16 -16 -6 -34 19 -34 19 0 25 5 22 17 -3 19 -29 29 -41 17z"/>
 <path d="M627 113 c-11 -10 -8 -41 4 -49 6 -3 18 1 27 9 13 13 13 19 2 31 -14 17 -23 20 -33 9z"/>
 <path d="M887 114 c-14 -14 -7 -35 11 -32 9 2 17 10 17 17 0 16 -18 25 -28 15z"/>
 <path d="M721 101 c-15 -10 -8 -41 9 -41 15 0 25 29 14 40 -5 5 -15 5 -23 1z"/>
 <path d="M800 95 c-6 -8 -9 -19 -6 -24 9 -14 36 -2 36 14 0 21 -16 26 -30 10z"/>
 </g>
<g id="layer102" fill="#c8e0de" stroke="none">
 <path d="M1474 1426 l-34 -34 0 -122 0 -122 34 -34 c38 -38 77 -44 126 -19 34 17 46 37 51 80 5 42 -22 40 -33 -3 -10 -36 -55 -64 -90 -54 -43 11 -58 49 -58 146 0 101 12 134 53 154 22 11 31 10 55 -2 33 -17 42 -34 42 -76 0 -27 -3 -29 -42 -32 -30 -2 -43 -8 -43 -18 0 -11 13 -16 45 -18 62 -3 75 8 74 63 -2 57 -19 92 -56 111 -47 24 -86 18 -124 -20z"/>
 <path d="M1764 1426 c-31 -31 -34 -39 -34 -96 0 -57 3 -65 34 -96 75 -75 186 -18 186 96 0 77 -49 130 -121 130 -22 0 -41 -10 -65 -34z m129 -28 c24 -28 23 -108 -1 -139 -45 -54 -132 -9 -132 69 0 85 82 128 133 70z"/>
 </g>

</svg>