<!DOCTYPE svg PUBLIC "-//W3C//DTD SVG 20010904//EN" "http://www.w3.org/TR/2001/REC-SVG-20010904/DTD/svg10.dtd">
<svg version="1.0" xmlns="http://www.w3.org/2000/svg" width="204px" height="151px" viewBox="0 0 2040 1510" preserveAspectRatio="xMidYMid meet">
<g id="layer101" fill="#8cb7b4" stroke="none">
 <path d="M613 1414 c-8 -20 8 -36 26 -25 15 10 8 41 -9 41 -6 0 -13 -7 -17 -16z"/>
 <path d="M702 1414 c2 -11 11 -20 22 -22 13 -3 17 1 14 14 -2 11 -11 20 -22 22 -13 3 -17 -1 -14 -14z"/>
 <path d="M792 1418 c-19 -19 -14 -28 14 -28 18 0 25 5 22 17 -4 21 -21 26 -36 11z"/>
 <path d="M1458 1414 c-47 -25 -58 -61 -58 -182 0 -123 12 -151 76 -178 67 -28 144 26 144 101 0 18 -5 25 -20 25 -14 0 -20 -7 -20 -23 0 -57 -78 -88 -116 -46 -16 18 -19 37 -19 131 0 123 8 138 71 138 38 0 64 -29 64 -72 0 -24 -4 -27 -42 -30 -32 -2 -44 -8 -46 -21 -3 -16 3 -18 60 -15 l63 3 3 52 c4 62 -8 87 -51 113 -38 24 -72 25 -109 4z"/>
 <path d="M1755 1420 c-86 -35 -98 -185 -19 -236 15 -10 45 -19 67 -19 32 0 45 7 73 38 29 32 34 44 34 87 0 28 -7 64 -15 80 -25 49 -89 72 -140 50z m104 -76 c28 -63 -4 -134 -61 -134 -49 0 -68 24 -68 85 0 52 13 76 50 87 25 8 67 -12 79 -38z"/>
 <path d="M524 1399 c-8 -14 11 -33 25 -25 6 4 11 14 11 22 0 16 -26 19 -36 3z"/>
 <path d="M876 1401 c-9 -14 5 -42 18 -38 15 5 14 39 -1 44 -6 2 -14 0 -17 -6z"/>
 <path d="M440 1376 c-13 -17 -6 -36 15 -36 19 0 26 27 11 39 -10 8 -17 7 -26 -3z"/>
 <path d="M962 1358 c5 -15 28 -18 29 -3 0 6 -7 12 -17 13 -10 3 -15 -1 -12 -10z"/>
 <path d="M365 1331 c-3 -5 -1 -12 5 -16 12 -7 30 2 30 16 0 12 -27 12 -35 0z"/>
 <path d="M1037 1333 c-14 -13 -6 -33 13 -33 13 0 20 7 20 20 0 19 -20 27 -33 13z"/>
 <path d="M297 1294 c-14 -14 -7 -35 11 -32 9 2 17 10 17 17 0 16 -18 25 -28 15z"/>
 <path d="M1112 1263 c5 -25 28 -28 28 -4 0 12 -6 21 -16 21 -9 0 -14 -7 -12 -17z"/>
 <path d="M225 1231 c-8 -15 3 -31 21 -31 9 0 14 7 12 17 -4 20 -24 28 -33 14z"/>
 <path d="M1185 1220 c-4 -6 -3 -16 3 -22 6 -6 12 -6 17 2 4 6 3 16 -3 22 -6 6 -12 6 -17 -2z"/>
 <path d="M162 1153 c2 -10 10 -18 18 -18 22 0 18 29 -3 33 -14 3 -18 -1 -15 -15z"/>
 <path d="M1234 1145 c3 -9 6 -19 6 -21 0 -2 7 -4 16 -4 22 0 13 34 -10 38 -14 3 -17 0 -12 -13z"/>
 <path d="M122 1079 c2 -6 8 -10 13 -10 5 0 11 4 13 10 2 6 -4 11 -13 11 -9 0 -15 -5 -13 -11z"/>
 <path d="M421 1081 c-20 -13 -6 -73 25 -110 13 -16 63 -48 110 -70 46 -22 87 -47 90 -55 3 -8 -20 -62 -50 -120 -83 -157 -77 -220 27 -287 72 -47 133 -52 205 -18 115 56 131 186 41 331 -51 84 -47 96 46 145 102 53 145 98 145 153 l0 40 -312 0 c-172 0 -319 -4 -327 -9z m603 -43 c-31 -55 -57 -77 -119 -99 -116 -41 -141 -88 -91 -174 29 -48 45 -158 26 -170 -6 -4 -49 -10 -94 -12 l-83 -6 -12 33 c-17 52 -13 96 15 152 45 89 20 135 -93 178 -31 12 -69 30 -85 41 -29 21 -37 54 -15 62 6 3 135 6 285 6 216 1 272 -2 266 -11z m-404 -474 c18 -41 23 -45 47 -40 16 3 57 8 93 11 36 4 80 15 98 26 36 21 39 13 16 -37 -21 -43 -70 -73 -133 -81 -53 -6 -55 -5 -143 72 -24 20 -24 95 -1 95 2 0 13 -21 23 -46z"/>
 <path d="M1283 1074 c-8 -22 15 -44 26 -25 10 16 4 41 -10 41 -5 0 -12 -7 -16 -16z"/>
 <path d="M76 1011 c-7 -10 22 -37 30 -28 9 8 -3 37 -15 37 -5 0 -12 -4 -15 -9z"/>
 <path d="M1320 985 c0 -8 7 -15 15 -15 8 0 15 7 15 15 0 8 -7 15 -15 15 -8 0 -15 -7 -15 -15z"/>
 <path d="M40 922 c0 -10 22 -32 32 -32 4 0 8 9 8 20 0 13 -7 20 -20 20 -11 0 -20 -4 -20 -8z"/>
 <path d="M1344 916 c-6 -17 2 -36 17 -36 12 0 12 37 -1 45 -6 3 -13 -1 -16 -9z"/>
 <path d="M34 846 c-6 -17 2 -36 17 -36 12 0 12 37 -1 45 -6 3 -13 -1 -16 -9z"/>
 <path d="M1361 837 c-13 -17 -4 -50 13 -44 15 5 20 37 9 48 -6 6 -14 4 -22 -4z"/>
 <path d="M27 754 c-14 -15 -6 -34 14 -34 14 0 19 5 17 17 -3 18 -20 27 -31 17z"/>
 <path d="M1367 754 c-3 -4 -2 -16 4 -26 8 -15 14 -17 22 -9 8 8 7 15 -4 26 -8 9 -18 13 -22 9z"/>
 <path d="M34 665 c-7 -17 4 -37 17 -30 12 8 12 45 -1 45 -6 0 -13 -7 -16 -15z"/>
 <path d="M1356 653 c-8 -19 8 -38 23 -29 16 10 13 46 -3 46 -8 0 -17 -8 -20 -17z"/>
 <path d="M48 584 c-11 -10 3 -34 19 -34 8 0 13 7 11 17 -3 18 -20 27 -30 17z"/>
 <path d="M1344 566 c-6 -17 2 -36 17 -36 12 0 12 37 -1 45 -6 3 -13 -1 -16 -9z"/>
 <path d="M77 503 c-14 -13 -6 -33 13 -33 13 0 20 7 20 20 0 19 -20 27 -33 13z"/>
 <path d="M1321 490 c-19 -11 -6 -41 14 -34 16 6 20 29 7 38 -4 2 -14 1 -21 -4z"/>
 <path d="M115 410 c-8 -13 4 -32 16 -25 12 8 12 35 0 35 -6 0 -13 -4 -16 -10z"/>
 <path d="M1267 406 c-7 -19 18 -42 28 -26 8 13 -1 40 -14 40 -5 0 -11 -6 -14 -14z"/>
 <path d="M160 330 c0 -15 5 -20 18 -18 9 2 17 10 17 18 0 8 -8 16 -17 18 -13 2 -18 -3 -18 -18z"/>
 <path d="M1224 337 c-3 -9 -3 -25 0 -34 6 -15 8 -15 24 0 15 16 15 18 0 34 -16 15 -18 15 -24 0z"/>
 <path d="M222 274 c1 -9 9 -19 16 -22 9 -3 13 2 10 14 -1 9 -9 19 -16 22 -9 3 -13 -2 -10 -14z"/>
 <path d="M1167 274 c-14 -14 -7 -35 11 -32 9 2 17 10 17 17 0 16 -18 25 -28 15z"/>
 <path d="M280 218 c0 -16 19 -38 33 -38 4 0 7 10 5 22 -3 25 -38 39 -38 16z"/>
 <path d="M1097 214 c-14 -15 -6 -34 14 -34 14 0 19 5 17 17 -3 18 -20 27 -31 17z"/>
 <path d="M360 155 c0 -8 7 -15 15 -15 8 0 15 7 15 15 0 8 -7 15 -15 15 -8 0 -15 -7 -15 -15z"/>
 <path d="M1016 161 c-7 -10 22 -37 30 -28 9 8 -3 37 -15 37 -5 0 -12 -4 -15 -9z"/>
 <path d="M442 113 c2 -10 10 -18 18 -18 22 0 18 29 -3 33 -14 3 -18 -1 -15 -15z"/>
 <path d="M937 123 c-11 -11 -8 -21 9 -27 19 -7 47 12 38 25 -6 11 -38 12 -47 2z"/>
 <path d="M514 105 c-7 -18 3 -35 21 -35 21 0 28 19 15 35 -16 19 -29 19 -36 0z"/>
 <path d="M598 88 c-8 -21 2 -38 22 -38 19 0 34 25 24 41 -8 13 -41 11 -46 -3z"/>
 <path d="M854 89 c-8 -14 11 -33 25 -25 16 10 13 36 -3 36 -8 0 -18 -5 -22 -11z"/>
 <path d="M697 84 c-14 -15 -6 -34 14 -34 14 0 19 5 17 17 -3 18 -20 27 -31 17z"/>
 <path d="M774 75 c-4 -9 -4 -18 -2 -21 9 -8 39 8 35 19 -6 18 -27 20 -33 2z"/>
 </g>
<g id="layer102" fill="#c7e0dd" stroke="none">
 <path d="M1439 1391 c-29 -29 -29 -30 -29 -151 0 -67 5 -130 10 -141 6 -10 24 -26 40 -34 61 -32 120 -11 146 51 19 45 18 54 -6 54 -14 0 -20 -7 -20 -23 0 -56 -86 -82 -122 -38 -15 19 -18 41 -18 130 0 99 2 109 23 129 49 46 117 10 117 -62 0 -37 0 -38 -37 -34 -30 2 -38 -1 -41 -15 -3 -14 4 -17 47 -17 60 0 76 20 68 84 -12 89 -116 129 -178 67z"/>
 <path d="M1734 1402 c-33 -26 -44 -55 -44 -112 0 -46 4 -56 34 -86 84 -84 203 -2 180 123 -11 56 -52 93 -106 93 -26 0 -52 -7 -64 -18z m113 -34 c33 -31 33 -109 -2 -143 -57 -58 -136 2 -122 93 11 67 77 94 124 50z"/>
 <path d="M973 1353 c4 -3 10 -3 14 0 3 4 0 7 -7 7 -7 0 -10 -3 -7 -7z"/>
 </g>

</svg>