<!DOCTYPE svg PUBLIC "-//W3C//DTD SVG 20010904//EN" "http://www.w3.org/TR/2001/REC-SVG-20010904/DTD/svg10.dtd">
<svg version="1.0" xmlns="http://www.w3.org/2000/svg" width="229px" height="158px" viewBox="0 0 2290 1580" preserveAspectRatio="xMidYMid meet">
<g id="layer101" fill="#a6b9b7" stroke="none">
 <path d="M652 1433 c2 -10 10 -18 18 -18 8 0 16 8 18 18 2 12 -3 17 -18 17 -15 0 -20 -5 -18 -17z"/>
 <path d="M740 1441 c0 -5 6 -14 14 -20 16 -13 32 2 21 19 -8 12 -35 13 -35 1z"/>
 <path d="M834 1435 c-4 -9 -3 -19 0 -23 9 -8 42 12 39 24 -4 16 -33 16 -39 -1z"/>
 <path d="M1457 1443 c-11 -11 -8 -332 3 -354 9 -16 22 -19 88 -19 110 1 142 30 142 135 0 46 -4 60 -25 80 -21 22 -33 25 -95 25 l-70 0 0 70 c0 61 -2 70 -18 70 -10 0 -22 -3 -25 -7z m177 -189 c10 -9 16 -33 16 -60 0 -63 -24 -84 -95 -84 l-55 0 0 80 0 80 59 0 c41 0 65 -5 75 -16z"/>
 <path d="M1760 1346 c0 -97 1 -105 25 -129 14 -13 36 -27 49 -29 44 -9 117 36 101 62 -9 15 -31 12 -45 -5 -17 -20 -53 -19 -73 3 -13 15 -17 39 -17 110 0 85 -1 92 -20 92 -19 0 -20 -7 -20 -104z"/>
 <path d="M2034 1416 c-31 -31 -34 -39 -34 -96 0 -57 3 -65 34 -96 29 -29 41 -34 81 -34 61 0 100 36 110 103 14 92 -33 157 -115 157 -34 0 -48 -6 -76 -34z m126 -26 c15 -15 20 -33 20 -70 0 -58 -24 -90 -67 -90 -42 0 -73 36 -73 85 0 81 71 124 120 75z"/>
 <path d="M563 1424 c-7 -18 17 -38 31 -24 11 11 1 40 -14 40 -6 0 -13 -7 -17 -16z"/>
 <path d="M920 1410 c0 -11 7 -20 15 -20 8 0 15 9 15 20 0 11 -7 20 -15 20 -8 0 -15 -9 -15 -20z"/>
 <path d="M475 1400 c-8 -13 14 -42 26 -34 5 3 9 14 9 25 0 20 -24 26 -35 9z"/>
 <path d="M1012 1379 c2 -6 8 -10 13 -10 5 0 11 4 13 10 2 6 -4 11 -13 11 -9 0 -15 -5 -13 -11z"/>
 <path d="M1092 1358 c-7 -7 -12 -18 -12 -25 0 -18 29 -16 37 3 8 21 -10 37 -25 22z"/>
 <path d="M400 1350 c0 -5 9 -10 20 -10 11 0 20 5 20 10 0 6 -9 10 -20 10 -11 0 -20 -4 -20 -10z"/>
 <path d="M324 1309 c-8 -14 11 -33 25 -25 6 4 11 14 11 22 0 16 -26 19 -36 3z"/>
 <path d="M1162 1283 c5 -25 28 -28 28 -4 0 12 -6 21 -16 21 -9 0 -14 -7 -12 -17z"/>
 <path d="M260 1240 c0 -11 7 -20 15 -20 8 0 15 9 15 20 0 11 -7 20 -15 20 -8 0 -15 -9 -15 -20z"/>
 <path d="M1236 1243 c-11 -11 -6 -23 8 -23 8 0 17 4 20 9 7 10 -19 23 -28 14z"/>
 <path d="M202 1187 c-13 -15 1 -42 17 -33 13 9 15 33 2 40 -5 3 -13 0 -19 -7z"/>
 <path d="M1280 1171 c0 -13 26 -32 33 -24 14 13 6 33 -13 33 -11 0 -20 -4 -20 -9z"/>
 <path d="M150 1101 c0 -18 18 -21 30 -6 10 13 9 15 -9 15 -11 0 -21 -4 -21 -9z"/>
 <path d="M458 1098 c-15 -12 -15 -17 -3 -51 20 -58 51 -86 143 -128 45 -21 85 -45 88 -53 6 -15 -12 -58 -71 -166 -61 -114 -47 -189 48 -250 69 -45 128 -52 195 -25 78 33 112 86 112 174 0 53 -6 72 -50 156 -27 52 -50 100 -50 105 0 5 33 26 73 46 125 63 167 106 167 174 l0 30 -318 0 c-239 0 -322 -3 -334 -12z m612 -43 c0 -29 -65 -80 -133 -104 -71 -25 -107 -57 -107 -96 0 -13 14 -49 30 -80 23 -44 30 -70 30 -115 l0 -58 -86 -7 c-103 -8 -114 -1 -122 73 -3 39 1 62 23 110 44 97 25 130 -100 183 -38 16 -81 41 -94 56 -43 49 -22 53 286 53 233 0 273 -2 273 -15z m-410 -475 c6 -21 14 -41 18 -43 4 -3 51 1 105 8 73 9 107 19 129 35 l31 23 -7 -29 c-16 -66 -72 -111 -153 -120 -43 -5 -52 -3 -88 24 -71 54 -75 60 -75 102 0 54 25 54 40 0z"/>
 <path d="M1336 1101 c-7 -11 3 -41 14 -41 14 0 21 17 14 34 -7 18 -20 21 -28 7z"/>
 <path d="M106 1031 c-8 -12 21 -34 33 -27 6 4 8 13 4 21 -6 17 -29 20 -37 6z"/>
 <path d="M1372 1004 c4 -21 22 -23 26 -1 2 10 -3 17 -13 17 -10 0 -15 -6 -13 -16z"/>
 <path d="M77 943 c-8 -7 11 -33 24 -33 5 0 9 9 9 20 0 19 -20 27 -33 13z"/>
 <path d="M1392 923 c4 -21 33 -25 33 -3 0 8 -8 16 -18 18 -14 3 -18 -1 -15 -15z"/>
 <path d="M64 859 c-8 -14 11 -33 25 -25 11 7 4 36 -9 36 -5 0 -12 -5 -16 -11z"/>
 <path d="M1417 853 c-4 -3 -7 -15 -7 -25 0 -22 26 -24 34 -2 10 25 -10 45 -27 27z"/>
 <path d="M52 753 c2 -10 10 -18 18 -18 8 0 16 8 18 18 2 12 -3 17 -18 17 -15 0 -20 -5 -18 -17z"/>
 <path d="M1422 754 c1 -9 9 -19 16 -22 9 -3 13 2 10 14 -1 9 -9 19 -16 22 -9 3 -13 -2 -10 -14z"/>
 <path d="M60 676 c0 -18 16 -29 30 -21 13 8 1 35 -16 35 -8 0 -14 -6 -14 -14z"/>
 <path d="M1410 661 c0 -28 17 -35 29 -13 11 21 6 32 -16 32 -7 0 -13 -9 -13 -19z"/>
 <path d="M86 603 c-12 -12 -6 -43 9 -43 8 0 15 9 15 19 0 21 -13 34 -24 24z"/>
 <path d="M1395 580 c-4 -6 -1 -18 6 -26 14 -17 31 0 22 23 -6 16 -19 17 -28 3z"/>
 <path d="M106 504 c-9 -23 -8 -24 13 -24 19 0 35 23 24 34 -12 11 -31 6 -37 -10z"/>
 <path d="M1370 495 c-6 -8 -9 -19 -6 -24 9 -14 36 -2 36 14 0 21 -16 26 -30 10z"/>
 <path d="M150 411 c0 -14 5 -19 15 -14 17 6 15 25 -3 31 -7 2 -12 -5 -12 -17z"/>
 <path d="M1324 416 c-6 -17 2 -36 17 -36 12 0 12 37 -1 45 -6 3 -13 -1 -16 -9z"/>
 <path d="M195 351 c-8 -15 3 -31 21 -31 9 0 14 7 12 17 -4 20 -24 28 -33 14z"/>
 <path d="M1273 334 c-9 -23 11 -38 26 -20 13 16 7 36 -10 36 -5 0 -12 -7 -16 -16z"/>
 <path d="M250 286 c0 -18 17 -29 30 -21 8 5 7 11 -1 21 -15 18 -29 18 -29 0z"/>
 <path d="M1223 283 c-18 -6 -16 -33 1 -33 19 0 31 19 20 30 -5 4 -15 5 -21 3z"/>
 <path d="M320 220 c0 -11 7 -23 15 -27 21 -8 28 1 20 26 -8 27 -35 27 -35 1z"/>
 <path d="M1143 214 c-8 -20 8 -36 26 -25 15 10 8 41 -9 41 -6 0 -13 -7 -17 -16z"/>
 <path d="M400 160 c0 -13 5 -20 13 -17 6 2 12 10 12 17 0 7 -6 15 -12 18 -8 2 -13 -5 -13 -18z"/>
 <path d="M1065 171 c-8 -15 3 -31 21 -31 9 0 14 7 12 17 -4 20 -24 28 -33 14z"/>
 <path d="M478 134 c-11 -10 3 -34 19 -34 8 0 13 7 11 17 -3 18 -20 27 -30 17z"/>
 <path d="M984 129 c-9 -15 12 -33 30 -26 9 4 16 13 16 22 0 17 -35 21 -46 4z"/>
 <path d="M557 114 c-16 -16 -6 -35 16 -32 12 2 22 10 22 18 0 16 -26 25 -38 14z"/>
 <path d="M647 103 c-11 -10 -8 -41 4 -49 6 -3 18 1 27 9 13 13 13 19 2 31 -14 17 -23 20 -33 9z"/>
 <path d="M907 104 c-14 -14 -7 -35 11 -32 9 2 17 10 17 17 0 16 -18 25 -28 15z"/>
 <path d="M820 85 c-6 -8 -9 -19 -6 -24 9 -14 36 -2 36 14 0 21 -16 26 -30 10z"/>
 <path d="M732 73 c2 -10 10 -18 18 -18 8 0 16 8 18 18 2 12 -3 17 -18 17 -15 0 -20 -5 -18 -17z"/>
 </g>

</svg>